<?xml version="1.0" encoding="UTF-8"?>
<svg id="Layer_1" data-name="Layer 1" xmlns="http://www.w3.org/2000/svg" version="1.1" viewBox="0 0 50 50">
  <defs>
    <style>
      .cls-1 {
        fill: #000;
      }

      .cls-1, .cls-2 {
        stroke-width: 0px;
      }

      .cls-2 {
        fill: #fff;
      }
    </style>
  </defs>
  <polygon class="cls-2" points="6.9 38.7 6.9 36 4.2 36 4.2 33.1 1.3 33.1 1.3 26 4.2 26 4.2 23.3 10.2 23.3 10.2 17.5 13 17.5 13 14.2 24.6 14.2 24.6 11.3 37.1 11.3 37.1 14.2 40.1 14.2 40.1 17 43.3 17 43.3 25.8 46.2 25.8 46.2 28.9 48.7 28.9 48.7 33 46.3 33 46.3 35.8 43.4 35.8 43.4 38.7 6.9 38.7"/>
  <path class="cls-1" d="M36.1,12.3v2.9h3v2.8h3.2v8.8h2.9v3h2.5v2.1h-2.3v2.8h-2.9v2.8H7.9v-2.7h-2.7v-2.9h-2.9v-5.1h2.8v-2.7h6v-5.8h2.8v-3.2h11.5v-2.9h10.5M38.1,10.3h-14.5v2.9h-11.5v3.2h-2.8v5.8H3.2v2.7H.3v9.1h2.9v2.9h2.7v2.7h38.5v-2.8h2.9v-2.8h2.3v-6.1h-2.5v-3h-2.9v-8.8h-3.2v-2.8h-3v-2.9h0Z"/>
</svg>