<?xml version="1.0" encoding="UTF-8"?>
<svg id="Layer_1" data-name="Layer 1" xmlns="http://www.w3.org/2000/svg" version="1.1" viewBox="0 0 50 50">
  <defs>
    <style>
      .cls-1 {
        fill: #3a3a3a;
      }

      .cls-1, .cls-2, .cls-3 {
        stroke-width: 0px;
      }

      .cls-2 {
        fill: #000;
      }

      .cls-3 {
        fill: #fff;
      }
    </style>
  </defs>
  <g>
    <polygon class="cls-1" points="13.9 32.1 13.9 29.8 11.6 29.8 11.6 27.4 9.1 27.4 9.1 21.4 11.5 21.4 11.5 19.1 16.6 19.1 16.6 14.2 19 14.2 19 11.4 28.8 11.4 28.8 9 39.4 9 39.4 11.4 41.9 11.4 41.9 13.8 44.6 13.8 44.6 21.2 47.1 21.2 47.1 23.8 49.2 23.8 49.2 27.3 47.2 27.3 47.2 29.7 44.7 29.7 44.7 32.1 13.9 32.1"/>
    <path class="cls-2" d="M38.5,9.8v2.5h2.6v2.3h2.7v7.5h2.5v2.6h2.1v1.8h-2v2.4h-2.5v2.4H14.7v-2.3h-2.3v-2.5h-2.5v-4.3h2.4v-2.3h5.1v-4.9h2.4v-2.7h9.8v-2.5h8.9M40.2,8.1h-12.3v2.5h-9.8v2.7h-2.4v4.9h-5.1v2.3h-2.4v7.7h2.5v2.5h2.3v2.3h32.5v-2.4h2.5v-2.4h2v-5.2h-2.1v-2.6h-2.5v-7.5h-2.7v-2.3h-2.6v-2.5h0Z"/>
  </g>
  <g>
    <polygon class="cls-3" points="5.6 38.8 5.6 36.5 3.3 36.5 3.3 34.1 .8 34.1 .8 28.1 3.2 28.1 3.2 25.8 8.3 25.8 8.3 20.9 10.7 20.9 10.7 18.1 20.5 18.1 20.5 15.7 31.1 15.7 31.1 18.1 33.6 18.1 33.6 20.5 36.3 20.5 36.3 28 38.8 28 38.8 30.5 40.9 30.5 40.9 34 38.9 34 38.9 36.4 36.4 36.4 36.4 38.8 5.6 38.8"/>
    <path class="cls-2" d="M30.2,16.5v2.5h2.6v2.3h2.7v7.5h2.5v2.6h2.1v1.8h-2v2.4h-2.5v2.4H6.4v-2.3h-2.3v-2.5H1.7v-4.3h2.4v-2.3h5.1v-4.9h2.4v-2.7h9.8v-2.5h8.9M31.9,14.8h-12.3v2.5h-9.8v2.7h-2.4v4.9H2.4v2.3H0v7.7h2.5v2.5h2.3v2.3h32.5v-2.4h2.5v-2.4h2v-5.2h-2.1v-2.6h-2.5v-7.5h-2.7v-2.3h-2.6v-2.5h0Z"/>
  </g>
</svg>