<?xml version="1.0" encoding="UTF-8"?>
<svg id="Layer_1" data-name="Layer 1" xmlns="http://www.w3.org/2000/svg" xmlns:xlink="http://www.w3.org/1999/xlink" version="1.1" viewBox="0 0 50 50">
  <defs>
    <style>
      .cls-1 {
        fill: #3a3a3a;
      }

      .cls-1, .cls-2, .cls-3, .cls-4 {
        stroke-width: 0px;
      }

      .cls-2 {
        fill: #ffb640;
      }

      .cls-3 {
        fill: #000;
      }

      .cls-5 {
        fill: none;
        stroke: #000;
        stroke-miterlimit: 10;
        stroke-width: 3px;
      }

      .cls-4 {
        fill: #fff;
      }

      .cls-6 {
        display: none;
      }
    </style>
  </defs>
  <g id="BCzg0J" class="cls-6">
    <image width="53" height="54" transform="translate(0 2.1)" xlink:href="09d-1.png"/>
  </g>
  <g>
    <polygon class="cls-1" points="13.9 27.4 13.9 25.1 11.6 25.1 11.6 22.6 9.1 22.6 9.1 16.6 11.5 16.6 11.5 14.3 16.6 14.3 16.6 9.4 19 9.4 19 6.7 28.8 6.7 28.8 4.2 39.4 4.2 39.4 6.7 41.9 6.7 41.9 9 44.6 9 44.6 16.5 47.1 16.5 47.1 19.1 49.2 19.1 49.2 22.6 47.2 22.6 47.2 25 44.7 25 44.7 27.4 13.9 27.4"/>
    <path class="cls-3" d="M38.5,5.1v2.5h2.6v2.3h2.7v7.5h2.5v2.6h2.1v1.8h-2v2.4h-2.5v2.4H14.7v-2.3h-2.3v-2.5h-2.5v-4.3h2.4v-2.3h5.1v-4.9h2.4v-2.7h9.8v-2.5h8.9M40.2,3.4h-12.3v2.5h-9.8v2.7h-2.4v4.9h-5.1v2.3h-2.4v7.7h2.5v2.5h2.3v2.3h32.5v-2.4h2.5v-2.4h2v-5.2h-2.1v-2.6h-2.5v-7.5h-2.7v-2.3h-2.6v-2.5h0Z"/>
  </g>
  <g class="cls-6">
    <polygon class="cls-2" points="29.6 32.3 29.6 29.9 24.1 29.9 24.1 26.8 21.2 26.8 21.2 21.6 19 21.6 19 14.6 21.1 14.6 21.1 9.4 24.3 9.4 24.3 6.2 29.6 6.2 29.6 3.3 36.3 3.3 36.3 6.2 42.4 6.2 42.4 9.3 44.7 9.3 44.7 14.8 47.2 14.8 47.2 21.4 45 21.4 45 26.8 41.8 26.8 41.8 29.9 36.5 29.9 36.5 32.3 29.6 32.3"/>
    <path class="cls-3" d="M35.5,4.1v3h6.1v3h2.3v5.6h2.5v4.9h-2.2v5.4h-3.1v3.1h-5.3v2.4h-5.2v-2.4h-5.5v-3h-2.9v-5.3h-2.3v-5.3h2.1v-5.2h3.3v-3.1h5.3v-3h5M37.2,2.5h-8.4v3h-5.3v3.1h-3.3v5.2h-2.1v8.7h2.3v5.3h2.9v3h5.5v2.4h8.6v-2.4h5.3v-3.1h3.1v-5.4h2.2v-8.3h-2.5v-5.6h-2.3v-3h-6.1v-3h0Z"/>
  </g>
  <g>
    <polygon class="cls-4" points="5.6 34.1 5.6 31.8 3.3 31.8 3.3 29.3 .9 29.3 .9 23.3 3.3 23.3 3.3 21 8.4 21 8.4 16 10.8 16 10.8 13.3 20.6 13.3 20.6 10.8 31.3 10.8 31.3 13.3 33.8 13.3 33.8 15.6 36.5 15.6 36.5 23.1 39 23.1 39 25.7 41.1 25.7 41.1 29.3 39.1 29.3 39.1 31.7 36.7 31.7 36.7 34.1 5.6 34.1"/>
    <path class="cls-3" d="M30.4,11.6v2.5h2.6v2.4h2.7v7.5h2.5v2.6h2.1v1.8h-2v2.4h-2.5v2.4H6.5v-2.3h-2.3v-2.5H1.7v-4.3h2.4v-2.3h5.1v-4.9h2.4v-2.8h9.8v-2.5h8.9M32.1,9.9h-12.4v2.5h-9.8v2.8h-2.4v4.9H2.4v2.3H0v7.7h2.5v2.5h2.3v2.3h32.7v-2.4h2.5v-2.4h2v-5.2h-2.1v-2.6h-2.5v-7.5h-2.7v-2.4h-2.6v-2.5h0Z"/>
  </g>
  <g id="zsfvnz.tif" class="cls-6">
    <image id="Layer_0" data-name="Layer 0" width="56" height="50" transform="translate(2.5 9) scale(.8)" xlink:href="09d-2.png"/>
  </g>
  <line class="cls-5" x1="10.6" y1="37.1" x2="10.6" y2="41.7"/>
  <line class="cls-5" x1="20.8" y1="37.1" x2="20.8" y2="41.7"/>
  <line class="cls-5" x1="15.7" y1="43.1" x2="15.7" y2="47.7"/>
  <line class="cls-5" x1="25.9" y1="43.1" x2="25.9" y2="47.7"/>
  <line class="cls-5" x1="31" y1="37.1" x2="31" y2="41.7"/>
</svg>