<svg xmlns="http://www.w3.org/2000/svg" xmlns:xlink="http://www.w3.org/1999/xlink" width="98" height="98" viewBox="0 0 98 98">
  <defs>
    <linearGradient id="linear-gradient" x1="0.5" x2="0.5" y2="1" gradientUnits="objectBoundingBox">
      <stop offset="0" stop-color="#19e6ff"/>
      <stop offset="1" stop-color="#1e51ee"/>
    </linearGradient>
  </defs>
  <g id="AppStore" opacity="0.644">
    <rect id="Origin_Color" data-name="Origin Color" width="98" height="98" rx="11" fill="url(#linear-gradient)"/>
    <path id="Icon" d="M7.224,62.384a4.86,4.86,0,0,1-1.182-6.331L9,50.957a.929.929,0,0,1,.534-.429,9.227,9.227,0,0,1,2.633-.388A9.683,9.683,0,0,1,18.5,52.56a.581.581,0,0,1,.116.73L14.16,60.961a4.741,4.741,0,0,1-6.937,1.423ZM57.68,60.961,47.409,43.26,39.374,29.334a.919.919,0,0,1-.122-.386c-.042-.53-.066-1.064-.066-1.6a21.071,21.071,0,0,1,2.646-10.692.548.548,0,0,1,.949-.006L56.089,39.317H67.15a4.881,4.881,0,0,1,4.925,4.276A4.744,4.744,0,0,1,67.355,48.8H61.593l4.2,7.247a4.86,4.86,0,0,1-1.179,6.331,4.74,4.74,0,0,1-6.939-1.421ZM30.258,48.8H4.743A4.744,4.744,0,0,1,.022,43.594a4.882,4.882,0,0,1,4.925-4.276h10.8l14.685-25.31L26.443,7.124A4.744,4.744,0,0,1,28.58.427a4.88,4.88,0,0,1,6.17,2.114l1.17,2.015,1.272-2.193A4.743,4.743,0,0,1,44.063.892a4.886,4.886,0,0,1,1.23,6.413L26.718,39.317H41.284a1.537,1.537,0,0,1,.809.217,8.4,8.4,0,0,1,3.947,7.177,8.538,8.538,0,0,1-.207,1.845.319.319,0,0,1-.312.247Z" transform="translate(13.067 17.967)" fill="#fff"/>
  </g>
</svg>
