<?xml version="1.0" encoding="UTF-8"?>
<svg id="Layer_1" data-name="Layer 1" xmlns="http://www.w3.org/2000/svg" version="1.1" viewBox="0 0 500 219.1">
  <defs>
    <style>
      .cls-1 {
        fill: #3a3a3a;
      }

      .cls-1, .cls-2, .cls-3, .cls-4, .cls-5, .cls-6 {
        stroke-width: 0px;
      }

      .cls-2 {
        fill: #ffb640;
      }

      .cls-3 {
        fill: #6b184e;
      }

      .cls-4 {
        fill: #54bbfd;
      }

      .cls-5 {
        fill: #fff;
      }

      .cls-6 {
        fill: #fc6985;
      }
    </style>
  </defs>
  <g>
    <g>
      <polygon class="cls-2" points="65.5 29.7 65.5 11.7 73.5 11.7 73.5 2.8 163.6 2.8 163.6 9.6 171.4 9.6 171.4 25 65.5 29.7"/>
      <path class="cls-3" d="M62.7,32.7V8.9h8V0h95.7v6.8h7.8v20.9l-111.5,5ZM68.3,14.5v12.3l100.3-4.5v-9.9h-7.8v-6.8h-84.5v8.9h-8Z"/>
    </g>
    <g>
      <polygon class="cls-2" points="301.1 29.7 301.1 11.7 309.1 11.7 309.1 2.8 399.2 2.8 399.2 9.6 407 9.6 407 25 301.1 29.7"/>
      <path class="cls-3" d="M298.3,32.7V8.9h8V0h95.7v6.8h7.8v20.9l-111.5,5ZM303.9,14.5v12.3l100.3-4.5v-9.9h-7.8v-6.8h-84.5v8.9h-8Z"/>
    </g>
    <g>
      <polygon class="cls-2" points="20.2 21.3 468.1 21.3 468.1 34.3 486.1 34.3 486.1 170.6 497.2 170.6 497.2 186.5 486.9 186.5 486.9 200.5 411 200.5 70 200.5 70 187.7 2.8 187.7 2.8 37.5 20.3 37.5 20.2 21.3"/>
      <path class="cls-3" d="M489.7,203.3H67.2v-12.7H0V34.7h17.4v-16.2s453.5,0,453.5,0v13h17.9v136.3h11.1v21.5h-10.3v13.9ZM72.8,197.6h411.3v-13.9h10.3v-10.3h-11.1V37.1h-17.9v-13H23v16.2s-17.4,0-17.4,0v144.6h67.2v12.7Z"/>
    </g>
  </g>
  <rect class="cls-5" x="2.8" y="123.3" width="483.3" height="27.3"/>
  <g>
    <rect class="cls-4" x="53.8" y="41.5" width="51.2" height="49.4"/>
    <path class="cls-3" d="M107.8,93.8h-56.9v-55h56.9v55ZM56.6,88.2h45.6v-43.8h-45.6v43.8Z"/>
  </g>
  <g>
    <rect class="cls-4" x="259.8" y="41.5" width="51.2" height="49.4"/>
    <path class="cls-3" d="M313.8,93.8h-56.9v-55h56.9v55ZM262.6,88.2h45.6v-43.8h-45.6v43.8Z"/>
  </g>
  <g>
    <rect class="cls-4" x="191.1" y="41.5" width="51.2" height="49.4"/>
    <path class="cls-3" d="M245.2,93.8h-56.9v-55h56.9v55ZM193.9,88.2h45.6v-43.8h-45.6v43.8Z"/>
  </g>
  <g>
    <rect class="cls-4" x="122.4" y="41.5" width="51.2" height="49.4"/>
    <path class="cls-3" d="M176.5,93.8h-56.9v-55h56.9v55ZM125.3,88.2h45.6v-43.8h-45.6v43.8Z"/>
  </g>
  <g>
    <rect class="cls-4" x="328.4" y="41.5" width="51.2" height="49.4"/>
    <path class="cls-3" d="M382.5,93.8h-56.9v-55h56.9v55ZM331.2,88.2h45.6v-43.8h-45.6v43.8Z"/>
  </g>
  <g>
    <rect class="cls-4" x="463.7" y="51.1" width="22.4" height="106.2"/>
    <path class="cls-3" d="M488.8,160.1h-27.8V48.4h27.8v111.7ZM466.4,154.6h17V53.8h-17v100.8Z"/>
  </g>
  <g>
    <g>
      <polygon class="cls-1" points="375.8 163.7 391 163.7 391 169 402 169 402 174.4 406.1 174.4 406.1 184.5 410.6 184.5 410.6 199.5 406.6 199.5 406.6 209.2 401 209.2 401 214.8 391.3 214.8 391.3 219.1 375.8 219.1 375.8 214.7 366 214.7 366 209.2 360.8 209.2 360.8 199.7 356.7 199.7 356.7 184.1 360.4 184.1 360.4 174.7 366.3 174.7 366.3 169 375.8 169 375.8 163.7"/>
      <path class="cls-3" d="M388,166.7v5.3h11v5.4h4.1v10.1h4.5v8.8h-4v9.7h-5.7v5.6h-9.6v4.3h-9.4v-4.4h-9.9v-5.4h-5.2v-9.5h-4.1v-9.5h3.7v-9.4h5.9v-5.7h9.5v-5.3h9.1M391,163.7h-15.2v5.3h-9.5v5.7h-5.9v9.4h-3.7v15.6h4.1v9.5h5.2v5.4h9.9v4.4h15.5v-4.3h9.6v-5.6h5.7v-9.7h4v-15h-4.5v-10.1h-4.1v-5.4h-11v-5.3h0Z"/>
    </g>
    <g>
      <polygon class="cls-2" points="378.8 180.9 388.8 180.9 388.8 185.5 393.8 185.5 393.8 190.3 393.8 196 389 196 389 201.9 378.8 201.9 378.8 196.1 373.5 196.1 373.5 185.5 378.9 185.5 378.8 180.9"/>
      <path class="cls-3" d="M391.1,204h-14.4v-5.8h-5.4v-14.8h5.4v-4.6s14.2,0,14.2,0v4.6h5v14.7h-4.8v5.9ZM381,199.8h5.9v-5.9h4.8v-6.2h-5v-4.6h-5.7v4.6s-5.4,0-5.4,0v6.4h5.4v5.8Z"/>
    </g>
  </g>
  <g>
    <g>
      <polygon class="cls-1" points="159.5 163.7 174.7 163.7 174.7 169 185.7 169 185.7 174.4 189.8 174.4 189.8 184.5 194.3 184.5 194.3 199.5 190.3 199.5 190.3 209.2 184.7 209.2 184.7 214.8 175 214.8 175 219.1 159.5 219.1 159.5 214.7 149.7 214.7 149.7 209.2 144.5 209.2 144.5 199.7 140.4 199.7 140.4 184.1 144.1 184.1 144.1 174.7 150 174.7 150 169 159.5 169 159.5 163.7"/>
      <path class="cls-3" d="M171.7,166.7v5.3h11v5.4h4.1v10.1h4.5v8.8h-4v9.7h-5.7v5.6h-9.6v4.3h-9.4v-4.4h-9.9v-5.4h-5.2v-9.5h-4.1v-9.5h3.7v-9.4h5.9v-5.7h9.5v-5.3h9.1M174.7,163.7h-15.2v5.3h-9.5v5.7h-5.9v9.4h-3.7v15.6h4.1v9.5h5.2v5.4h9.9v4.4h15.5v-4.3h9.6v-5.6h5.7v-9.7h4v-15h-4.5v-10.1h-4.1v-5.4h-11v-5.3h0Z"/>
    </g>
    <g>
      <polygon class="cls-2" points="162.5 180.9 172.5 180.9 172.5 185.5 177.5 185.5 177.5 190.3 177.5 196 172.7 196 172.7 201.9 162.5 201.9 162.5 196.1 157.2 196.1 157.2 185.5 162.6 185.5 162.5 180.9"/>
      <path class="cls-3" d="M174.8,204h-14.4v-5.8h-5.4v-14.8h5.4v-4.6s14.2,0,14.2,0v4.6h5v14.7h-4.8v5.9ZM164.6,199.8h5.9v-5.9h4.8v-6.2h-5v-4.6h-5.7v4.6s-5.4,0-5.4,0v6.4h5.4v5.8Z"/>
    </g>
  </g>
  <g>
    <g>
      <polygon class="cls-1" points="92.9 163.7 108.1 163.7 108.1 169 119.1 169 119.1 174.4 123.2 174.4 123.2 184.5 127.7 184.5 127.7 199.5 123.7 199.5 123.7 209.2 118.1 209.2 118.1 214.8 108.4 214.8 108.4 219.1 92.9 219.1 92.9 214.7 83.1 214.7 83.1 209.2 77.9 209.2 77.9 199.7 73.8 199.7 73.8 184.1 77.5 184.1 77.5 174.7 83.4 174.7 83.4 169 92.9 169 92.9 163.7"/>
      <path class="cls-3" d="M105,166.7v5.3h11v5.4h4.1v10.1h4.5v8.8h-4v9.7h-5.7v5.6h-9.6v4.3h-9.4v-4.4h-9.9v-5.4h-5.2v-9.5h-4.1v-9.5h3.7v-9.4h5.9v-5.7h9.5v-5.3h9.1M108.1,163.7h-15.2v5.3h-9.5v5.7h-5.9v9.4h-3.7v15.6h4.1v9.5h5.2v5.4h9.9v4.4h15.5v-4.3h9.6v-5.6h5.7v-9.7h4v-15h-4.5v-10.1h-4.1v-5.4h-11v-5.3h0Z"/>
    </g>
    <g>
      <polygon class="cls-2" points="95.9 180.9 105.9 180.9 105.9 185.5 110.9 185.5 110.9 190.3 110.9 196 106.1 196 106.1 201.9 95.9 201.9 95.9 196.1 90.6 196.1 90.6 185.5 96 185.5 95.9 180.9"/>
      <path class="cls-3" d="M108.2,204h-14.4v-5.8h-5.4v-14.8h5.4v-4.6s14.2,0,14.2,0v4.6h5v14.7h-4.8v5.9ZM98,199.8h5.9v-5.9h4.8v-6.2h-5v-4.6h-5.7v4.6s-5.4,0-5.4,0v6.4h5.4v5.8Z"/>
    </g>
  </g>
  <g>
    <rect class="cls-4" x="400.2" y="52.4" width="51.2" height="103.7"/>
    <path class="cls-3" d="M455.6,160.1h-59.5V48.4h59.5v111.7ZM404.3,152h43V56.4h-43v95.6Z"/>
  </g>
  <g>
    <rect class="cls-6" x="2.8" y="114.3" width="12.9" height="59.1"/>
    <path class="cls-3" d="M17.3,174.9H1.3v-62.2h16v62.2ZM4.3,171.8h9.8v-56H4.3v56Z"/>
  </g>
</svg>