<svg xmlns="http://www.w3.org/2000/svg" width="122.642" height="106.171" viewBox="0 0 122.642 106.171">
  <g id="CHROME" transform="translate(-6665.442 -1214.584)">
    <circle id="Ellipse_180" data-name="Ellipse 180" cx="44.851" cy="44.851" r="44.851" transform="translate(6679.945 1217.238)" fill="#fff"/>
    <circle id="Ellipse_179" data-name="Ellipse 179" cx="18.591" cy="18.591" r="18.591" transform="translate(6708.156 1243.499)" fill="#75a6e6"/>
    <path id="Path_43" data-name="Path 43" d="M7732.229,1196.491l-19.722-34.2s9.817-21.625,38.621-23.6,42.923,23.6,42.923,23.6h-43.413s-13.874,1.527-19.03,13.943S7732.229,1196.491,7732.229,1196.491Z" transform="translate(-1026.516 76)" fill="#e48780"/>
    <path id="Path_44" data-name="Path 44" d="M19.722,57.907,0,23.706S9.818,2.08,38.621.108s42.923,23.6,42.923,23.6H38.132S24.257,25.232,19.1,37.648,19.722,57.907,19.722,57.907Z" transform="translate(6788.084 1250.135) rotate(120)" fill="#f1d070"/>
    <path id="Path_45" data-name="Path 45" d="M19.722,57.907,0,23.706S9.818,2.08,38.621.108s42.923,23.6,42.923,23.6H38.132S24.257,25.232,19.1,37.648,19.722,57.907,19.722,57.907Z" transform="translate(6706.214 1320.755) rotate(-120)" fill="#7cbb8e"/>
  </g>
</svg>
