<svg xmlns="http://www.w3.org/2000/svg" width="376" height="203" viewBox="0 0 376 203">
  <g id="Union_5" data-name="Union 5" transform="translate(376 203) rotate(180)" fill="#fff">
    <path d="M 166.4117584228516 200.5 C 162.2178039550781 200.5 158.0374603271484 200.0331573486328 153.9867553710938 199.1124572753906 C 150.0473022460938 198.2170562744141 146.1965484619141 196.8851013183594 142.54150390625 195.1537475585938 C 138.9514617919922 193.4531555175781 135.5290985107422 191.3576049804688 132.3695526123047 188.92529296875 C 129.2320098876953 186.5099487304688 126.3406066894531 183.7527465820312 123.7756576538086 180.7302551269531 L 122.3733062744141 179.0777435302734 L 120.5386047363281 180.2315521240234 C 111.6548538208008 185.8184051513672 101.3892059326172 188.7714538574219 90.85145568847656 188.7714538574219 C 83.29555511474609 188.7714538574219 75.96695709228516 187.2877044677734 69.06920623779297 184.3614044189453 C 65.75355529785156 182.9548034667969 62.55535507202148 181.2135925292969 59.56350708007812 179.1862487792969 C 56.5992546081543 177.1776428222656 53.8117561340332 174.8707427978516 51.27830505371094 172.3296966552734 C 48.74475479125977 169.7884979248047 46.44460678100586 166.9923553466797 44.44185638427734 164.0189056396484 C 42.4201545715332 161.0174560546875 40.68385696411133 157.8088989257812 39.28110504150391 154.4824066162109 C 36.36255645751953 147.5614471435547 34.88275527954102 140.2080535888672 34.88275527954102 132.6264038085938 C 34.88275527954102 130.7099456787109 34.98005676269531 128.7774505615234 35.17190551757812 126.8824996948242 L 35.34660720825195 125.1566009521484 L 33.79110717773438 124.3888473510742 C 24.54485511779785 119.8251495361328 16.73065567016602 112.7920989990234 11.19330596923828 104.0500030517578 C 5.506105899810791 95.07129669189453 2.500005960464478 84.67400360107422 2.500005960464478 73.98214721679688 C 2.500005960464478 66.40070343017578 3.979805946350098 59.04745101928711 6.898355960845947 52.1265983581543 C 8.301055908203125 48.80020141601562 10.0374059677124 45.59170150756836 12.05905628204346 42.59024810791016 C 14.06185626983643 39.61679840087891 16.3619556427002 36.82070159912109 18.89555549621582 34.27949905395508 C 21.428955078125 31.73850059509277 24.21650505065918 29.43160057067871 27.18075561523438 27.42300033569336 C 30.17260551452637 25.39565086364746 33.37075424194336 23.65449905395508 36.68645477294922 22.24790000915527 C 43.58420562744141 19.32159996032715 50.91280746459961 17.83785057067871 58.46870422363281 17.83785057067871 C 64.91940307617188 17.83785057067871 71.24200439453125 18.92889976501465 77.26080322265625 21.08065032958984 C 83.07805633544922 23.16035079956055 88.48705291748047 26.18230056762695 93.33760833740234 30.0625 L 94.89930725097656 31.31180000305176 L 96.46100616455078 30.0625 C 101.3115539550781 26.18230056762695 106.7205581665039 23.16035079956055 112.5378036499023 21.08065032958984 C 118.5566024780273 18.92889976501465 124.8792037963867 17.83785057067871 131.3299102783203 17.83785057067871 C 137.677001953125 17.83785057067871 143.9028015136719 18.89444923400879 149.8343048095703 20.97834968566895 L 151.3775024414062 21.52054977416992 L 152.4923553466797 20.32360076904297 C 155.0463562011719 17.58155059814453 157.8837127685547 15.08720016479492 160.9256134033203 12.90985012054443 C 163.9931488037109 10.7140998840332 167.2897491455078 8.825849533081055 170.7239074707031 7.297500133514404 C 177.8768615722656 4.114099979400635 185.5052490234375 2.5 193.3971557617188 2.5 C 197.777099609375 2.5 202.1379089355469 3.008899927139282 206.3583984375 4.012549877166748 C 210.4597625732422 4.987899780273438 214.4561004638672 6.436349868774414 218.2364044189453 8.317649841308594 C 221.9502105712891 10.16590023040771 225.4689483642578 12.43805027008057 228.6948547363281 15.07110023498535 C 231.9023590087891 17.68910026550293 234.8261566162109 20.66835021972656 237.3849487304688 23.92605018615723 L 238.6891632080078 25.58645057678223 L 240.5444030761719 24.57855033874512 C 244.5457000732422 22.40480041503906 248.8050537109375 20.72845077514648 253.2041625976562 19.59614944458008 C 257.7369995117188 18.4294490814209 262.4317016601562 17.83785057067871 267.1577453613281 17.83785057067871 C 272.3645935058594 17.83785057067871 277.5191040039062 18.55400085449219 282.4779968261719 19.96635055541992 C 287.2832641601562 21.3349494934082 291.8907165527344 23.3518009185791 296.1723022460938 25.96080017089844 C 304.6515502929688 31.12764930725098 311.6351623535156 38.47669982910156 316.3681640625 47.2135009765625 L 317.0634155273438 48.4969482421875 L 318.5229187011719 48.52230072021484 C 325.9716186523438 48.65169906616211 333.1830444335938 50.22570037841797 339.9568481445312 53.20059967041016 C 346.5101623535156 56.07865142822266 352.3885192871094 60.14350128173828 357.4286499023438 65.28220367431641 C 362.4731140136719 70.42524719238281 366.4308166503906 76.39234924316406 369.19189453125 83.01764678955078 C 372.0502014160156 89.87629699707031 373.49951171875 97.15709686279297 373.49951171875 104.6578521728516 C 373.49951171875 112.2393035888672 372.0197143554688 119.5925521850586 369.1011657714844 126.5133972167969 C 367.6983947753906 129.8397979736328 365.9620971679688 133.0482940673828 363.9404602050781 136.0497436523438 C 361.9376525878906 139.023193359375 359.6375122070312 141.8193054199219 357.1039428710938 144.3605041503906 C 354.5704956054688 146.9015045166016 351.7830200195312 149.2084045410156 348.8187561035156 151.2169952392578 C 345.826904296875 153.2443542480469 342.6286926269531 154.9855041503906 339.3130493164062 156.3921051025391 C 332.4152526855469 159.3184051513672 325.086669921875 160.8021545410156 317.5307922363281 160.8021545410156 C 312.7563171386719 160.8021545410156 308.0151672363281 160.1985473632812 303.4389953613281 159.0081024169922 L 301.5759582519531 158.5234069824219 L 300.6313171386719 160.2008056640625 C 295.8338623046875 168.7193450927734 288.8682556152344 175.8718566894531 280.487548828125 180.8850555419922 C 276.2500915527344 183.4197998046875 271.6989135742188 185.3784027099609 266.9604187011719 186.7064514160156 C 262.0714416503906 188.0767059326172 256.992919921875 188.7714538574219 251.8658599853516 188.7714538574219 C 245.2110595703125 188.7714538574219 238.7012634277344 187.6126556396484 232.5172576904297 185.3271942138672 C 226.5410614013672 183.1186065673828 221.016357421875 179.9169464111328 216.0966491699219 175.8112030029297 L 213.9949493408203 174.0572509765625 L 212.4383544921875 176.3090057373047 C 209.9187622070312 179.9537963867188 206.9665069580078 183.3011016845703 203.6636047363281 186.2579956054688 C 200.349609375 189.2248992919922 196.6895599365234 191.7922058105469 192.7852630615234 193.8887023925781 C 188.8131561279297 196.0216064453125 184.5890502929688 197.6660003662109 180.2303009033203 198.7762451171875 C 175.7398529052734 199.9200439453125 171.0906524658203 200.5 166.4117584228516 200.5 Z" stroke="none"/>
    <path d="M 193.3971252441406 5 C 185.8576965332031 5 178.5712890625 6.541427612304688 171.7403869628906 9.581527709960938 C 168.4602355957031 11.04132080078125 165.3111724853516 12.84504699707031 162.3807067871094 14.94268798828125 C 159.4739074707031 17.02336120605469 156.7624359130859 19.40705871582031 154.3216552734375 22.02752685546875 L 152.0920257568359 24.42137145996094 L 149.0055999755859 23.33705139160156 C 143.3409729003906 21.34689331054688 137.3940124511719 20.33784484863281 131.3299102783203 20.33784484863281 C 125.1668090820312 20.33784484863281 119.1273803710938 21.37979125976562 113.37939453125 23.43473815917969 C 107.8233337402344 25.42105102539062 102.6565856933594 28.30778503417969 98.02264404296875 32.01467895507812 L 94.8992919921875 34.51321411132812 L 91.77590942382812 32.01467895507812 C 87.1419677734375 28.30778503417969 81.9752197265625 25.42105102539062 76.419189453125 23.43473815917969 C 70.67117309570312 21.37979125976562 64.63180541992188 20.33784484863281 58.46868896484375 20.33784484863281 C 51.25018310546875 20.33784484863281 44.25006103515625 21.75479125976562 37.66281127929688 24.54931640625 C 34.49603271484375 25.89279174804688 31.441162109375 27.55595397949219 28.58319091796875 29.49263000488281 C 25.75070190429688 31.41189575195312 23.08700561523438 33.61631774902344 20.66595458984375 36.04463195800781 C 18.24468994140625 38.47315979003906 16.04653930664062 41.14530944824219 14.13259887695312 43.98689270019531 C 12.20095825195312 46.85462951660156 10.54202270507812 49.92005920410156 9.201904296875 53.09800720214844 C 6.41375732421875 59.70973205566406 5.000030517578125 66.73616027832031 5.000030517578125 73.98210144042969 C 5.000030517578125 84.19957733154297 7.871917724609375 94.13431549072266 13.30526733398438 102.7122650146484 C 18.5968017578125 111.0662612915039 26.06329345703125 117.7866821289062 34.8975830078125 122.1470031738281 L 38.00869750976562 123.6825790405273 L 37.6591796875 127.1343688964844 C 37.47576904296875 128.9456329345703 37.38275146484375 130.7933654785156 37.38275146484375 132.6263732910156 C 37.38275146484375 139.8725280761719 38.79647827148438 146.8991546630859 41.58465576171875 153.5110015869141 C 42.92474365234375 156.6889953613281 44.58370971679688 159.7544708251953 46.51531982421875 162.6222686767578 C 48.42929077148438 165.4638366699219 50.62744140625 168.1360015869141 53.0487060546875 170.5645751953125 C 55.46975708007812 172.9928894042969 58.13348388671875 175.1973724365234 60.96591186523438 177.1166839599609 C 63.82391357421875 179.0533142089844 66.87875366210938 180.7164764404297 70.04559326171875 182.0599517822266 C 76.6328125 184.8545227050781 83.63290405273438 186.2714691162109 90.85150146484375 186.2714691162109 C 100.9176940917969 186.2714691162109 110.7231140136719 183.4511108398438 119.2076416015625 178.1152648925781 L 122.8770751953125 175.8076324462891 L 125.6817626953125 179.1126251220703 C 128.1330718994141 182.0011596679688 130.8962249755859 184.6361083984375 133.8945465087891 186.9442596435547 C 136.9131317138672 189.2680511474609 140.1824951171875 191.2699432373047 143.6117553710938 192.8943634033203 C 147.1020660400391 194.5477294921875 150.7791748046875 195.8196258544922 154.5409088134766 196.6746368408203 C 158.4100189208984 197.5541076660156 162.4039611816406 198 166.4117584228516 198 C 170.8827056884766 198 175.3242797851562 197.446044921875 179.6132354736328 196.3536376953125 C 183.775390625 195.2934265136719 187.8091278076172 193.7230987548828 191.6025390625 191.6861572265625 C 195.3325500488281 189.6832580566406 198.8294372558594 187.2302551269531 201.9960784912109 184.3953704833984 C 205.1526031494141 181.5695190429688 207.9740142822266 178.3705749511719 210.3818664550781 174.8873748779297 L 213.4951171875 170.3838500976562 L 217.698486328125 173.8917846679688 C 222.3986511230469 177.8142700195312 227.6759643554688 180.8727416992188 233.3839111328125 182.9822692871094 C 239.28955078125 185.1648406982422 245.5077514648438 186.2714691162109 251.8658142089844 186.2714691162109 C 256.7648010253906 186.2714691162109 261.6163330078125 185.6079406738281 266.2857055664062 184.2992553710938 C 270.8106689453125 183.0310516357422 275.1570129394531 181.1605224609375 279.2041625976562 178.7395782470703 C 287.21240234375 173.94921875 293.8684997558594 167.1144256591797 298.4529724121094 158.9739990234375 L 300.34228515625 155.6192016601562 L 304.0684509277344 156.5885772705078 C 308.43896484375 157.7255859375 312.9683837890625 158.3021087646484 317.5308227539062 158.3021087646484 C 324.7493286132812 158.3021087646484 331.7494506835938 156.8851623535156 338.3367004394531 154.0906372070312 C 341.5034790039062 152.7471618652344 344.558349609375 151.0839996337891 347.4163818359375 149.1473693847656 C 350.2488098144531 147.2280578613281 352.9125366210938 145.0236358642578 355.3335571289062 142.5953674316406 C 357.7548217773438 140.1667938232422 359.9529724121094 137.49462890625 361.8669128417969 134.6531066894531 C 363.7985534667969 131.7853088378906 365.4574890136719 128.7198944091797 366.797607421875 125.5419998168945 C 369.5857543945312 118.9302597045898 370.9994812011719 111.9037857055664 370.9994812011719 104.657844543457 C 370.9994812011719 97.48894500732422 369.6149291992188 90.53173828125 366.88427734375 83.9793701171875 C 364.2461853027344 77.64920806884766 360.4643859863281 71.94752502441406 355.6438598632812 67.03279113769531 C 350.8278503417969 62.12263488769531 345.2117614746094 58.2388916015625 338.9515991210938 55.48957824707031 C 332.4828491210938 52.648681640625 325.5950317382812 51.14552307128906 318.4794311523438 51.02194213867188 L 315.5604858398438 50.97120666503906 L 314.169921875 48.40431213378906 C 309.6471252441406 40.05552673339844 302.9738159179688 33.03289794921875 294.8714294433594 28.09568786621094 C 290.7820739746094 25.60383605957031 286.3818969726562 23.67768859863281 281.7931823730469 22.37074279785156 C 277.0570678710938 21.02178955078125 272.1329650878906 20.33784484863281 267.1577453613281 20.33784484863281 C 262.6417541503906 20.33784484863281 258.1567993164062 20.90289306640625 253.8273315429688 22.01725769042969 C 249.6266479492188 23.09852600097656 245.5591735839844 24.69937133789062 241.7378540039062 26.77537536621094 L 238.0273284912109 28.79115295410156 L 235.4189605712891 25.47036743164062 C 232.9734954833984 22.35694885253906 230.1793365478516 19.50979614257812 227.114013671875 17.00784301757812 C 224.0318603515625 14.49215698242188 220.6702880859375 12.32136535644531 217.1225433349609 10.5557861328125 C 213.5125427246094 8.75921630859375 209.6963348388672 7.376052856445312 205.7800140380859 6.444732666015625 C 201.7487487792969 5.486053466796875 197.5825958251953 5 193.3971252441406 5 M 193.3971252441406 0 C 212.0399169921875 0 228.6447601318359 8.751373291015625 239.3510131835938 22.3818359375 C 247.6206970214844 17.88916015625 257.0923767089844 15.33784484863281 267.1577453613281 15.33784484863281 C 289.3560791015625 15.33784484863281 308.6644287109375 27.74447631835938 318.5662841796875 46.02268981933594 C 350.3811645507812 46.5753173828125 375.9994812011719 72.61558532714844 375.9994812011719 104.657844543457 C 375.9994812011719 137.0461120605469 349.8220825195312 163.3021087646484 317.5308227539062 163.3021087646484 C 312.4458618164062 163.3021087646484 307.5129089355469 162.6511077880859 302.8096008300781 161.4275207519531 C 292.7760620117188 179.2435302734375 273.72119140625 191.2714691162109 251.8658142089844 191.2714691162109 C 237.6536560058594 191.2714691162109 224.6278076171875 186.1870574951172 214.4948120117188 177.7305755615234 C 203.9393920898438 192.9998474121094 186.3395385742188 203 166.4117584228516 203 C 148.5687561035156 203 132.5941772460938 194.9855194091797 121.8694915771484 182.3478393554688 C 112.8794250488281 188.0015869140625 102.2452392578125 191.2714691162109 90.85150146484375 191.2714691162109 C 58.5601806640625 191.2714691162109 32.38275146484375 165.0154266357422 32.38275146484375 132.6263732910156 C 32.38275146484375 130.6021118164062 32.48495483398438 128.6021118164062 32.68460083007812 126.6306304931641 C 13.322021484375 117.073844909668 3.0517578125e-05 97.08921051025391 3.0517578125e-05 73.98210144042969 C 3.0517578125e-05 41.59388732910156 26.17742919921875 15.33784484863281 58.46868896484375 15.33784484863281 C 72.24334716796875 15.33784484863281 84.90701293945312 20.116943359375 94.8992919921875 28.11026000976562 C 104.8915405273438 20.116943359375 117.5552673339844 15.33784484863281 131.3299102783203 15.33784484863281 C 138.1059112548828 15.33784484863281 144.6107482910156 16.49342346191406 150.6629180908203 18.61968994140625 C 161.334228515625 7.162689208984375 176.5321197509766 0 193.3971252441406 0 Z" stroke="none" fill="#41355b"/>
  </g>
</svg>
