<svg xmlns="http://www.w3.org/2000/svg" width="63" height="52" viewBox="0 0 63 52">
  <g id="Internet_Icon" data-name="Internet Icon" transform="translate(-6516 150)">
    <rect id="Rectangle_67" data-name="Rectangle 67" width="59" height="40" transform="translate(6518 -148)" fill="#6b184e"/>
    <path id="Rectangle_66" data-name="Rectangle 66" d="M5,3A2,2,0,0,0,3,5V39a2,2,0,0,0,2,2H58a2,2,0,0,0,2-2V5a2,2,0,0,0-2-2H5M5,0H58a5,5,0,0,1,5,5V39a5,5,0,0,1-5,5H5a5,5,0,0,1-5-5V5A5,5,0,0,1,5,0Z" transform="translate(6516 -150)" fill="#6b184e"/>
    <path id="Rectangle_67-2" data-name="Rectangle 67" d="M.6,0H6V8A3,3,0,0,1,0,8V.6A.6.6,0,0,1,.6,0Z" transform="translate(6545 -109)" fill="#6b184e"/>
    <rect id="Rectangle_66-2" data-name="Rectangle 66" width="38" height="3" rx="1" transform="translate(6529 -101)" fill="#6b184e"/>
  </g>
</svg>
