<svg xmlns="http://www.w3.org/2000/svg" width="46.419" height="30.086" viewBox="0 0 46.419 30.086">
  <path id="Ellipse_184" data-name="Ellipse 184" d="M18.209-.7C7.765-.7-.7,4.109-.7,10.043S7.765,20.788,18.209,20.788s18.911-4.811,18.911-10.745S28.654-.7,18.209-.7m0-4.3a31.873,31.873,0,0,1,15.5,3.708,17.174,17.174,0,0,1,5.377,4.586,11.287,11.287,0,0,1,2.337,6.749,11.287,11.287,0,0,1-2.337,6.749,17.174,17.174,0,0,1-5.377,4.586,31.873,31.873,0,0,1-15.5,3.708,31.873,31.873,0,0,1-15.5-3.708,17.174,17.174,0,0,1-5.377-4.586A11.287,11.287,0,0,1-5,10.043,11.287,11.287,0,0,1-2.663,3.294,17.174,17.174,0,0,1,2.714-1.292,31.873,31.873,0,0,1,18.209-5Z" transform="translate(5 5)"/>
</svg>
