<svg xmlns="http://www.w3.org/2000/svg" width="41" height="32" viewBox="0 0 41 32">
  <g id="ERASER" transform="translate(-10921.74 -392.577)">
    <path id="Path_58" data-name="Path 58" d="M10944.636,418.622l.1-.1,2.91-2.908,2.912-2.911,2.911-2.909,2.908-2.913,2.911-2.9,17.213-.018-.017,11.657-5.828,5.817-5.822,5.821h-2.689l.041-5.817-17.5,0Z" transform="translate(-16.015 -8.095)" fill="#fffd38"/>
    <path id="Union_24" data-name="Union 24" d="M2.948,32V29.091H0V20.364H2.948v8.727H23.582V32Zm17.686-2.909V20.364h2.948v5.818h2.68v2.909Zm5.627-2.909V23.273h2.948v2.909Zm2.948-2.909V20.364h2.948v2.909Zm2.948-2.909V17.455H35.1v2.909Zm-8.575,0V17.455h2.948v2.909Zm-20.634,0V17.455H5.9v2.909ZM35.1,17.455V14.545h2.948v2.909Zm-8.575,0V14.545h2.948v2.909Zm-20.634,0V14.545H8.843v2.909Zm32.157-2.909V8.727h-2.68V5.818h2.68V2.909H20.634V0H38.052V2.645H41v11.9Zm-8.575,0V11.636h2.948v2.909Zm-20.634,0V11.636h2.948v2.909Zm23.582-2.909V8.727h2.948v2.909Zm-20.634,0V8.727h2.948v2.909Zm2.948-2.909V5.818h2.948V8.727Zm2.948-2.909V2.909h2.948V5.818Z" transform="translate(10921.74 392.577)"/>
    <rect id="Rectangle_143" data-name="Rectangle 143" width="2" height="3" transform="translate(10943.74 395.577)" fill="#fff"/>
    <rect id="Rectangle_144" data-name="Rectangle 144" width="3" height="3" transform="translate(10940.74 398.577)" fill="#fff"/>
    <rect id="Rectangle_149" data-name="Rectangle 149" width="2" height="4" transform="translate(10943.74 401.577)" fill="#fff"/>
    <rect id="Rectangle_151" data-name="Rectangle 151" width="3" height="1" transform="translate(10940.74 405.577)" fill="#fff"/>
    <rect id="Rectangle_152" data-name="Rectangle 152" width="4" height="4" transform="translate(10936.74 406.577)" fill="#fff"/>
    <rect id="Rectangle_153" data-name="Rectangle 153" width="2" height="2" transform="translate(10934.74 410.577)" fill="#fff"/>
    <rect id="Rectangle_154" data-name="Rectangle 154" width="3" height="2" transform="translate(10940.74 410.577)" fill="#fff"/>
    <rect id="Rectangle_155" data-name="Rectangle 155" width="2" height="4" transform="translate(10943.74 406.577)" fill="#fff"/>
    <rect id="Rectangle_156" data-name="Rectangle 156" width="3" height="1" transform="translate(10945.74 405.577)" fill="#fff"/>
    <rect id="Rectangle_157" data-name="Rectangle 157" width="4" height="4" transform="translate(10948.74 401.577)" fill="#fff"/>
    <rect id="Rectangle_158" data-name="Rectangle 158" width="2" height="3" transform="translate(10952.74 398.577)" fill="#fff"/>
    <rect id="Rectangle_160" data-name="Rectangle 160" width="4" height="3" transform="translate(10948.74 395.577)" fill="#fff"/>
    <rect id="Rectangle_159" data-name="Rectangle 159" width="4" height="3" transform="translate(10954.74 395.577)" fill="#fff"/>
    <rect id="Rectangle_150" data-name="Rectangle 150" width="3" height="3" transform="translate(10945.74 398.577)" fill="#fff"/>
    <rect id="Rectangle_145" data-name="Rectangle 145" width="4" height="4" transform="translate(10936.74 401.577)" fill="#fff"/>
    <rect id="Rectangle_146" data-name="Rectangle 146" width="2" height="1" transform="translate(10934.74 405.577)" fill="#fff"/>
    <rect id="Rectangle_147" data-name="Rectangle 147" width="3" height="4" transform="translate(10931.74 406.577)" fill="#fff"/>
    <rect id="Rectangle_148" data-name="Rectangle 148" width="4" height="2" transform="translate(10927.74 410.577)" fill="#fff"/>
    <rect id="Rectangle_161" data-name="Rectangle 161" width="18" height="9" transform="translate(10925.74 412.577)" fill="#e4e4e4"/>
  </g>
</svg>
