<svg xmlns="http://www.w3.org/2000/svg" xmlns:xlink="http://www.w3.org/1999/xlink" width="117.23" height="96.136" viewBox="0 0 117.23 96.136">
  <defs>
    <filter id="Subtraction_90" x="0" y="4.868" width="117.23" height="91.268" filterUnits="userSpaceOnUse">
      <feOffset dx="3" dy="3" input="SourceAlpha"/>
      <feGaussianBlur result="blur"/>
      <feFlood flood-opacity="0.161"/>
      <feComposite operator="in" in2="blur"/>
      <feComposite in="SourceGraphic"/>
    </filter>
  </defs>
  <g id="STIFINDER" transform="translate(-6271 143.501)">
    <path id="Subtraction_91" data-name="Subtraction 91" d="M112.283,93.137H1.947A1.949,1.949,0,0,1,0,91.19V1.948A1.949,1.949,0,0,1,1.947,0H28.373a16.959,16.959,0,0,0,6.463,6.648l79.394,45.838v38.7A1.949,1.949,0,0,1,112.283,93.137Z" transform="translate(6271 -143.501)" fill="#e8b644"/>
    <g transform="matrix(1, 0, 0, 1, 6271, -143.5)" filter="url(#Subtraction_90)">
      <path id="Subtraction_90-2" data-name="Subtraction 90" d="M112.283,88.268H1.947A1.949,1.949,0,0,1,0,86.322V9.713a9.311,9.311,0,0,0,4.218,1h18.5A9.422,9.422,0,0,0,32.127,1.3,9.532,9.532,0,0,0,32.038,0h80.245a1.949,1.949,0,0,1,1.947,1.947V86.322A1.949,1.949,0,0,1,112.283,88.268Z" transform="translate(0 4.87)" fill="#edd04f"/>
    </g>
    <path id="Subtraction_93" data-name="Subtraction 93" d="M69.447,42.512h-18.6V19.13H18.6V42.512H0V0H69.447V42.512Z" transform="translate(6293.392 -92.876)" fill="#2790c0"/>
  </g>
</svg>
