<svg xmlns="http://www.w3.org/2000/svg" width="169.04" height="147.573" viewBox="0 0 169.04 147.573">
  <g id="FOLDER" transform="translate(-2108.589 338.674)">
    <path id="Union_13" data-name="Union 13" d="M5.519,143.785a4,4,0,0,1-4-4V18.392H0V4.792a3,3,0,0,1,3-3H33.881a3.028,3.028,0,0,1,.39.025L34.246,0,58.9,18.392h85.932a4,4,0,0,1,4,4V139.784a4,4,0,0,1-4,4Z" transform="translate(2108.901 -336.917)" fill="#eafd79"/>
    <path id="Union_13_-_Outline" data-name="Union 13 - Outline" d="M143.417,143.416a4.162,4.162,0,0,0,4.156-4.158V26.477a4.162,4.162,0,0,0-4.156-4.158H55.524L32.6,5.074l-.812-.557a2.061,2.061,0,0,0-1.171-.36H6.235A2.08,2.08,0,0,0,4.157,6.235V139.258a4.162,4.162,0,0,0,4.156,4.158h135.1m0,4.157H8.313A8.314,8.314,0,0,1,0,139.258V6.235A6.234,6.234,0,0,1,6.235,0H30.613a6.206,6.206,0,0,1,3.521,1.088V1.029L56.913,18.162h86.5a8.314,8.314,0,0,1,8.313,8.315V139.258A8.314,8.314,0,0,1,143.417,147.573Z" transform="translate(2108.589 -338.674)" fill="#313131"/>
    <path id="Path_30" data-name="Path 30" d="M2286.166-567.94c-3.928,1.446-5.6,8.813-5.6,8.813l-17.873,84.234s-.862,6.353,4.091,7.378,133.3,0,133.3,0,7.752-.2,8.614-6.148,15.935-83.619,15.935-83.619,2.847-10.287-4.24-10.79S2290.094-569.385,2286.166-567.94Z" transform="translate(-149.527 274.003)" fill="#eafd79"/>
    <path id="Path_30_-_Outline" data-name="Path 30 - Outline" d="M2337.959-569.757h0c36.577,0,79.4.4,83.464.69a6.674,6.674,0,0,1,5.094,2.632c2.667,3.615,1.237,9.551.974,10.535-.521,2.687-15.06,77.706-15.893,83.462-.458,3.163-2.49,5.531-5.876,6.847a15.178,15.178,0,0,1-4.683.986H2401c-.571,0-57.45.456-96.467.456-34.743,0-36.431-.35-37.152-.5a6.913,6.913,0,0,1-5.452-5.553,11.949,11.949,0,0,1-.221-3.99l.024-.138,17.863-84.26c.195-.86,2.043-8.45,6.852-10.222C2287.218-569.094,2289.024-569.757,2337.959-569.757Zm62.983,101.243a11.3,11.3,0,0,0,3.357-.74,4.664,4.664,0,0,0,3.285-3.724c.857-5.92,15.322-80.535,15.937-83.708l.014-.073.02-.072c.355-1.3,1.057-5.45-.342-7.34a2.557,2.557,0,0,0-2.084-1c-4.008-.284-46.664-.68-83.167-.68-42.818,0-49.208.534-50.131.715-2.155.872-3.8,5.313-4.267,7.365l-17.835,84.134a8.375,8.375,0,0,0,.18,2.649,2.909,2.909,0,0,0,2.329,2.513c.853.153,6.717.412,36.3.412C2343.192-468.059,2399.4-468.5,2400.942-468.514Z" transform="translate(-150.482 273.047)" fill="#313131"/>
  </g>
</svg>
