<svg xmlns="http://www.w3.org/2000/svg" width="17.64" height="43.537" viewBox="0 0 17.64 43.537">
  <path id="Path_58" data-name="Path 58" d="M8330.021-297.6a10.337,10.337,0,0,1-3.882-2.465,13.129,13.129,0,0,1-3.712-9.7c-.018-5.3,4.371-8.688,8.245-11.679a31.972,31.972,0,0,0,4.364-3.775,4.62,4.62,0,0,0,1.443-3.3c-.143-2.389-1.517-4.555-4.084-6.439a17.475,17.475,0,0,0-4.025-2.2l-1.688-.594,1.186-3.378,1.69.594a21.148,21.148,0,0,1,4.958,2.694c3.416,2.508,5.33,5.659,5.538,9.112a8.025,8.025,0,0,1-2.326,5.88,34.993,34.993,0,0,1-4.866,4.247,33.789,33.789,0,0,0-4.9,4.291,6.8,6.8,0,0,0-1.954,4.541,9.733,9.733,0,0,0,2.522,7.041,7.123,7.123,0,0,0,2.557,1.718l-.018,0Z" transform="translate(-8322.427 341.135)"/>
</svg>
