<svg xmlns="http://www.w3.org/2000/svg" width="801.972" height="86.4" viewBox="0 0 801.972 86.4">
  <g id="Logo" transform="translate(-26.826 -16.666)">
    <path id="COLLEE" d="M556.888,100.823H603.6V92.787H565.09V60.529h31.2V52.494h-31.2V26.765h38.844V18.729H556.888Zm-145.922,0h46.714V92.787H419.171V60.529h29.741V52.494H419.171V26.765h38.841V18.729H410.966Zm-48.278,0h39.791V92.9H370.893V18.729h-8.205Zm-48.223,0h39.791V92.9H322.67V18.729h-8.205ZM280.138,29.394a34.047,34.047,0,0,1,12.828,12.65,34.776,34.776,0,0,1,4.556,17.678,35.647,35.647,0,0,1-4.556,17.872,33.2,33.2,0,0,1-12.689,12.68,35.139,35.139,0,0,1-17.693,4.635,33.444,33.444,0,0,1-24.455-10.081,33.51,33.51,0,0,1-10.144-24.715,35.559,35.559,0,0,1,4.584-17.929,35.056,35.056,0,0,1,30.016-17.539,34.729,34.729,0,0,1,17.554,4.75m-39.3-7.01a41.66,41.66,0,0,0-15.608,15.823A43.747,43.747,0,0,0,219.5,60.139a41.1,41.1,0,0,0,12.565,30.249q12.566,12.5,30.827,12.5a41.565,41.565,0,0,0,30.573-12.559A41.647,41.647,0,0,0,306,59.749q0-18.194-12.565-30.639T262.224,16.666a41.982,41.982,0,0,0-21.39,5.718m-37.918-1.171a46.485,46.485,0,0,0-20.761-4.547q-19.029,0-31.671,12.3T137.843,59.3q0,17.136,10.435,29.244,12.448,14.345,33.988,14.344a48.1,48.1,0,0,0,20.51-4.269,41.373,41.373,0,0,0,15.318-12.084l-6.471-4.91q-11.609,13.506-28.854,13.506-15.684,0-25.98-10.048t-10.3-25.057a35.035,35.035,0,0,1,4.6-17.887,33.833,33.833,0,0,1,12.976-12.668,36.437,36.437,0,0,1,18.192-4.717,37.648,37.648,0,0,1,16.492,3.6,35.41,35.41,0,0,1,12.864,10.577l6.471-4.968a40.276,40.276,0,0,0-15.179-12.752" transform="translate(224.863)" fill="#3a3a3a"/>
    <path id="TECH" d="M270.592,100.593h27.438V71.161h25.09v29.432h27.438V18.515H323.121V47.478h-25.09V18.515H270.592Zm-29.722,0a42.388,42.388,0,0,0,10.786-4.75,36.973,36.973,0,0,0,8.269-7.034,52.329,52.329,0,0,0,6.1-8.617L243.39,67.41a25.892,25.892,0,0,1-6.1,7.446q-3.517,2.877-9.382,2.874A14.2,14.2,0,0,1,221.7,76.38a14.646,14.646,0,0,1-4.865-3.752,17.062,17.062,0,0,1-3.168-5.745,23.105,23.105,0,0,1-1.113-7.328V59.32a21.436,21.436,0,0,1,1.113-6.919,18.54,18.54,0,0,1,3.107-5.745,14.5,14.5,0,0,1,4.807-3.87,13.976,13.976,0,0,1,6.332-1.407A14.165,14.165,0,0,1,237,44.135a22.415,22.415,0,0,1,5.8,7.213L265.434,38.1a44.916,44.916,0,0,0-6.157-8.617,37.031,37.031,0,0,0-8.205-6.744,40.918,40.918,0,0,0-10.32-4.4,46.444,46.444,0,0,0-12.486-1.582,45.258,45.258,0,0,0-17.121,3.222,42.769,42.769,0,0,0-13.893,8.971,41.207,41.207,0,0,0-9.264,13.6,43,43,0,0,0-3.343,17v.233a42.558,42.558,0,0,0,3.461,17.354A41.264,41.264,0,0,0,210.969,99.3a43.647,43.647,0,0,0,16.241,3.047,48.817,48.817,0,0,0,13.66-1.758m-130.444,0h70.588V78.081H137.392V69.167h36.772V49.354H137.392V41.027h43.035V18.515h-70Zm-59.448,0H78.417V41.732h24.152V18.515H26.826V41.732H50.978Z" transform="translate(0 0.184)" fill="#3a3a3a"/>
    <g id="G" transform="translate(688.428 16.94)">
      <path id="Path_3" data-name="Path 3" d="M311.073,23.1A43.065,43.065,0,1,0,330.82,51.515l-7.437,1.455a35.487,35.487,0,1,1-16.274-23.417Z" transform="translate(-245.502 -16.757)" fill="#3a3a3a"/>
      <rect id="Rectangle_8" data-name="Rectangle 8" width="39.843" height="7.692" transform="matrix(0.819, -0.573, 0.573, 0.819, 42.805, 38.545)" fill="#3a3a3a"/>
    </g>
  </g>
</svg>
