<svg xmlns="http://www.w3.org/2000/svg" xmlns:xlink="http://www.w3.org/1999/xlink" width="98" height="98" viewBox="0 0 98 98">
  <defs>
    <radialGradient id="radial-gradient" cx="0.5" cy="0.5" r="0.5" gradientUnits="objectBoundingBox">
      <stop offset="0" stop-color="#68aadb"/>
      <stop offset="0.121" stop-color="#629ff1"/>
      <stop offset="0.324" stop-color="#9572fd"/>
      <stop offset="0.632" stop-color="#ef6773"/>
      <stop offset="0.783" stop-color="#ed6677"/>
      <stop offset="0.85" stop-color="#d27198"/>
      <stop offset="1" stop-color="#68aadb"/>
    </radialGradient>
  </defs>
  <g id="Music" opacity="0.777">
    <rect id="Origin_Color" data-name="Origin Color" width="98" height="98" rx="10" fill="#fff"/>
    <g id="Music_Icon" data-name="Music Icon" transform="translate(19.6 15.517)">
      <path id="Music_Icon-2" data-name="Music Icon" d="M0,57.7c0,4.216,3.362,7.633,8.583,7.633H9.1c6.293,0,9.656-4.5,9.656-9.8V22.078A1.385,1.385,0,0,1,19.8,20.771l27.121-5.747a.847.847,0,0,1,1.052.87V38.3a6.136,6.136,0,0,1-1.014,3.751,3.879,3.879,0,0,1-2.808,1.476H41.025a7.573,7.573,0,0,0-7.51,7.633c0,4.216,3.362,7.633,8.583,7.633h.512c6.293,0,9.656-4.5,9.656-9.8V1.8A1.7,1.7,0,0,0,50.163.04l-33.6,6.8a2.737,2.737,0,0,0-2.1,2.608v35.39a6.136,6.136,0,0,1-1.014,3.751,3.879,3.879,0,0,1-2.808,1.476H7.51A7.573,7.573,0,0,0,0,57.7Z" transform="translate(0 0)" fill="url(#radial-gradient)"/>
      <path id="Music_Icon-3" data-name="Music Icon" d="M0,57.7c0,4.216,3.362,7.633,8.583,7.633H9.1c6.293,0,9.656-4.5,9.656-9.8V22.078A1.385,1.385,0,0,1,19.8,20.771l27.121-5.747a.847.847,0,0,1,1.052.87V38.3a6.136,6.136,0,0,1-1.014,3.751,3.879,3.879,0,0,1-2.808,1.476H41.025a7.573,7.573,0,0,0-7.51,7.633c0,4.216,3.362,7.633,8.583,7.633h.512c6.293,0,9.656-4.5,9.656-9.8V1.8A1.7,1.7,0,0,0,50.163.04l-33.6,6.8a2.737,2.737,0,0,0-2.1,2.608v35.39a6.136,6.136,0,0,1-1.014,3.751,3.879,3.879,0,0,1-2.808,1.476H7.51A7.573,7.573,0,0,0,0,57.7Z" transform="translate(0 0)" fill="none"/>
    </g>
  </g>
</svg>
