<svg xmlns="http://www.w3.org/2000/svg" width="51.032" height="43.908" viewBox="0 0 51.032 43.908">
  <g id="PAINT_BUCKET" data-name="PAINT BUCKET" transform="translate(-10216 -473)">
    <path id="Path_57" data-name="Path 57" d="M10259.9,517.149l21.271-.115,10.521,5.544.861,2.8-1.379,4.395-3.5,2.948-3.615,3.512-3.125,2.981-3.108,2.945-4.937-.16-1.079-2.442-6.14-6.075-3.883-1.487-1.884-5.411-1.027-.759-3.948-2.373.83-2.7,1.252-.066,2.643-3.312Z" transform="translate(-27.604 -31.23)" fill="#1fbfc0" stroke="#1fbfc0" stroke-width="1"/>
    <path id="Paint_bucket_tool" data-name="Paint bucket tool" d="M6.106,43.908v-3.2h-3.2v-6.4H0V12.794H3.2V9.6H6.106V6.4h9.6V9.6H12.5v3.2H7.851v3.2h-3.2V22.1H9.305V43.908Zm22.827-3.49V37.366h-3.2V34.312H22.681V31.4H18.9v-3.2H15.7V22.1h-6.4V15.993h3.2V18.9h3.2v3.2h3.2v6.107h3.49v-3.2H25.88v-3.2h3.489v-3.2h3.49v-3.2h3.489V9.6h-3.78V6.4H29.078V3.2h3.489V6.4h7.27v5.816H44.49v3.2h4.362v3.2h2.181v6.543h-3.2V18.61H45.071v3.2h-3.2v3.2h-3.2v3.2h-3.49v3.2h-3.2v2.908H28.933v3.053h6.106v3.053Zm6.106-3.053V34.312h3.2v3.053Zm3.2-3.053V31.259h3.2v3.053Zm3.2-3.053V28.206h3.2v3.053Zm3.2-3.053V25.153h3.2v3.053ZM18.9,22.1V18.9h3.2v3.2Zm-6.4-6.106v-3.2h3.2v3.2Zm16.574-3.2V9.6h3.489v3.2Zm-13.376,0V9.6h3.489v3.2Zm3.489-3.2V6.4h3.49V9.6Zm3.49-3.2V3.2H26.17V6.4ZM26.17,3.2V0h6.4V3.2Z" transform="translate(10216 473)"/>
  </g>
</svg>
