<svg xmlns="http://www.w3.org/2000/svg" xmlns:xlink="http://www.w3.org/1999/xlink" width="156.549" height="263.641" viewBox="0 0 156.549 263.641">
  <defs>
    <filter id="Ellipse_182" x="81.549" y="0" width="75" height="74" filterUnits="userSpaceOnUse">
      <feOffset dx="-5" dy="3" input="SourceAlpha"/>
      <feGaussianBlur result="blur"/>
      <feFlood flood-opacity="0.161"/>
      <feComposite operator="in" in2="blur"/>
      <feComposite in="SourceGraphic"/>
    </filter>
  </defs>
  <g id="Group_14" data-name="Group 14" transform="translate(-7597.451 -1497)">
    <path id="Path_47" data-name="Path 47" d="M49.792,0,0,80.84,74.954,11.517Z" transform="translate(7637.218 1530.508) rotate(14)" fill="#52737d"/>
    <ellipse id="Ellipse_181" data-name="Ellipse 181" cx="46.5" cy="47" rx="46.5" ry="47" transform="translate(7647 1505)" fill="#ce545e"/>
    <g transform="matrix(1, 0, 0, 1, 7597.45, 1497)" filter="url(#Ellipse_182)">
      <ellipse id="Ellipse_182-2" data-name="Ellipse 182" cx="35" cy="35.5" rx="35" ry="35.5" transform="translate(86.55)" fill="#f76d6d"/>
    </g>
    <g id="PIN" transform="translate(7728.78 1624.139) rotate(91)" opacity="0.491">
      <path id="Path_47-2" data-name="Path 47" d="M49.792,0,0,80.84,74.954,11.517Z" transform="translate(19.557 33.508) rotate(14)" fill="#fdb358"/>
      <path id="Path_48" data-name="Path 48" d="M46.5,0C72.181,0,93,21.043,93,47S72.181,94,46.5,94,0,72.957,0,47,20.819,0,46.5,0Z" transform="translate(29.523 8)" fill="#fdb358"/>
      <ellipse id="Ellipse_182-3" data-name="Ellipse 182" cx="35" cy="35.5" rx="35" ry="35.5" transform="translate(66.523 0)" fill="#fdb358"/>
    </g>
  </g>
</svg>
