<svg xmlns="http://www.w3.org/2000/svg" xmlns:xlink="http://www.w3.org/1999/xlink" width="98" height="98" viewBox="0 0 98 98">
  <defs>
    <linearGradient id="linear-gradient" x1="0.5" x2="0.5" y2="1" gradientUnits="objectBoundingBox">
      <stop offset="0" stop-color="#f452ff"/>
      <stop offset="1" stop-color="#832bc1"/>
    </linearGradient>
  </defs>
  <g id="Podcasts" opacity="0.648">
    <rect id="Origin_Color" data-name="Origin Color" width="98" height="98" rx="10" fill="url(#linear-gradient)"/>
    <path id="Shape" d="M28.706,72.311a42.13,42.13,0,0,1-1.149-5.586c-.633-4.075-1.117-8.077-1.373-11.077a36.621,36.621,0,0,1-.16-7.406,4.5,4.5,0,0,1,1.3-2.819,9.8,9.8,0,0,1,7.1-2.544,9.8,9.8,0,0,1,7.1,2.544,4.5,4.5,0,0,1,1.3,2.819,36.622,36.622,0,0,1-.16,7.406c-.255,3-.74,7-1.373,11.077a42.144,42.144,0,0,1-1.149,5.586c-.54,1.816-2.558,3.405-5.714,3.405S29.247,74.128,28.706,72.311Zm16.507-5.9c.177-1.177.344-2.361.5-3.526a1.183,1.183,0,0,1,.695-.933,30.024,30.024,0,1,0-23.957,0,1.184,1.184,0,0,1,.7.933c.154,1.165.321,2.349.5,3.527a.46.46,0,0,1-.61.5,34.428,34.428,0,1,1,22.789,0,.468.468,0,0,1-.155.027A.46.46,0,0,1,45.214,66.416ZM21.466,53.495a23.064,23.064,0,1,1,25.959,0,.454.454,0,0,1-.707-.4,32.959,32.959,0,0,0,.039-3.932,1.427,1.427,0,0,1,.449-1.12,18.659,18.659,0,1,0-25.523,0,1.427,1.427,0,0,1,.448,1.119,33,33,0,0,0,.04,3.933.455.455,0,0,1-.454.482A.442.442,0,0,1,21.466,53.495Zm4.95-21.874a8.013,8.013,0,1,1,8.012,8.012A8.013,8.013,0,0,1,26.416,31.621Z" transform="translate(14.571 10.898)" fill="#fff"/>
  </g>
</svg>
