<svg xmlns="http://www.w3.org/2000/svg" width="47.744" height="47.936" viewBox="0 0 47.744 47.936">
  <path id="Path_57" data-name="Path 57" d="M10536.7,919.524l-.766-.819h-1.121v-2.8h2.242v.222l.008-.007,1.531,1.639Zm3.123-2.915-1.531-1.639,2.049-1.912,1.529,1.639Zm-2.768-2.388h-2.242v-2.8h2.242Zm6.043-.672-1.527-1.639,2.047-1.912,1.529,1.639Zm3.277-3.059-1.529-1.639,2.049-1.912,1.529,1.639Zm-9.32-.752h-2.242v-2.8h2.242Zm12.6-2.307-1.531-1.639,2.049-1.912,1.529,1.639Zm-12.6-2.176h-2.242v-.215h-.344V902.8h1.465l1.121,1.121Zm-4.268-.215h-2.8V902.8h2.8Zm-4.482,0h-2.8V903.75l-.711.839-1.711-1.449,1.813-2.138,1.709,1.449-.293.347h2Zm24.074-.036-.141-2.237,2.8-.175.141,2.237Zm4.475-.28-.141-2.237,2.8-.175.141,2.237Zm4.475-.28-.141-2.237,2.8-.175.141,2.237Zm4.475-.28-.141-2.237,1.979-.124-.367-.391,1.633-1.535,1.918,2.042-1.633,1.535-.672-.713.08,1.248Zm-38.113-3-1.711-1.449,1.811-2.138,1.709,1.449Zm38.432-.982-1.918-2.042,1.635-1.535,1.918,2.042Zm-35.535-2.44-1.711-1.449,1.813-2.138,1.709,1.449Zm32.467-.828-1.918-2.042,1.633-1.535,1.918,2.042Zm-29.568-2.593-1.711-1.449,1.811-2.138,1.709,1.449Zm26.5-.674-.559-.594-.3-.767V890.3h2.242v1.543l.256.271Zm-24.1-3.705-2.238-.148.186-2.8,2.238.148Zm25.479-1.324h-2.242v-2.8h2.242Zm-12.148-2.033-1.574-.071-.217-.234.826-.763-.539-.6,1.844-1.666,1.5,1.663Zm-13.035-1.116-2.236-.148.186-2.8,2.236.148Zm10.1-.423-1.9-2.059,1.646-1.521,1.9,2.059Zm15.08-.911h-2.242v-2.8h2.242Zm-9.059-.342-1.5-1.663,2.078-1.879,1.5,1.663Zm-9.062-2.041-1.9-2.059,1.646-1.521,1.9,2.059Zm-6.766-.756-2.238-.148.186-2.8,2.238.148Zm19.156-.208-1.5-1.663,2.08-1.879,1.5,1.663Zm5.73-1.135h-2.242v-2.018l-.162.148-1.5-1.663,2.037-1.84,1.871.832-1.094.029.725.8-1.006.908h1.375Zm-21.164-1.194-1.9-2.058,1.646-1.521,1.9,2.059Zm-3.428-1.936-2.236-.148.186-2.8,1.037.069-.5-.541,1.646-1.521,1.9,2.059-1.646,1.521-.277-.3Z" transform="translate(-10523.076 -871.588)"/>
</svg>
