<svg xmlns="http://www.w3.org/2000/svg" width="43.468" height="32.393" viewBox="0 0 43.468 32.393">
  <path id="Rectangle_84" data-name="Rectangle 84" d="M0,0H4.153V2.769H2.769V5.26H0ZM6.368,0h4.153V2.769H6.368Zm6.368,0h4.153V2.769H12.736ZM19.1,0h4.153V2.769H19.1Zm6.368,0h4.153V2.769H25.472ZM31.84,0h4.153V2.769H31.84Zm6.368,0h4.153V1.107h1.107V5.26H40.7V2.769H38.208ZM40.7,7.475h2.769v4.153H40.7Zm0,6.368h2.769V18H40.7Zm0,6.368h2.769v4.153H40.7Zm0,6.368h2.769v4.153h-.554v1.661H38.761V29.625H40.7Zm-8.306,3.046h4.153v2.769H32.393Zm-6.368,0h4.153v2.769H26.025Zm-6.368,0h4.153v2.769H19.658Zm-6.368,0h4.153v2.769H13.29Zm-6.368,0h4.153v2.769H6.922ZM0,26.579H2.769v3.046H4.707v2.769H.554V30.732H0Zm0-6.368H2.769v4.153H0Zm0-6.368H2.769V18H0ZM0,7.475H2.769v4.153H0Z"/>
</svg>
