<svg xmlns="http://www.w3.org/2000/svg" width="80.728" height="57.97" viewBox="0 0 80.728 57.97">
  <g id="Speaker" transform="translate(-6687 230.97)">
    <g id="Group_8" data-name="Group 8" transform="translate(-11 4.03)">
      <g id="Union_18" data-name="Union 18" transform="translate(6698 -235)" fill="#6b184e">
        <path d="M 43.5 55.15010452270508 L 28.89913940429688 45.30826187133789 L 28.51907920837402 45.05208206176758 L 28.06073951721191 45.05208206176758 L 1.5 45.05208206176758 L 1.5 12.91806316375732 L 28.06119918823242 12.91806316375732 L 28.51955032348633 12.91806316375732 L 28.89962005615234 12.66186332702637 L 43.5 2.82007884979248 L 43.5 55.15010452270508 Z" stroke="none"/>
        <path d="M 42 52.3300666809082 L 42 5.640164375305176 L 28.97790908813477 14.41806316375732 L 3 14.41806316375732 L 3 43.55208206176758 L 28.97743034362793 43.55208206176758 L 42 52.3300666809082 M 45 57.97014236450195 L 28.06073951721191 46.55208206176758 L -3.552713678800501e-15 46.55208206176758 L -3.552713678800501e-15 11.41806316375732 L 28.06119918823242 11.41806316375732 L 45 3.089599658778752e-06 L 45 57.97014236450195 Z" stroke="none" fill="#6b184e"/>
      </g>
      <g id="Union_19" data-name="Union 19" transform="translate(6747.272 -221.243)" fill="none">
        <path d="M26.188,29.724l-10.46-10.46L5.268,29.724a2.5,2.5,0,0,1-3.536-3.536l10.46-10.46L.732,4.268A2.5,2.5,0,0,1,4.268.733l11.46,11.46L27.188.733a2.5,2.5,0,0,1,3.535,3.535l-11.46,11.46,10.46,10.46a2.5,2.5,0,0,1-3.535,3.536Z" stroke="none"/>
        <path d="M 27.95545959472656 30.45600128173828 C 27.3156795501709 30.45600128173828 26.67600059509277 30.21210098266602 26.18819999694824 29.72430038452148 L 15.72776031494141 19.26387023925781 L 5.2677001953125 29.72430038452148 C 4.291200160980225 30.69990348815918 2.708100318908691 30.69990348815918 1.731600046157837 29.72430038452148 C 0.7560001015663147 28.74780082702637 0.7560001015663147 27.16470146179199 1.731600046157837 26.18819999694824 L 12.19204044342041 15.72813034057617 L 0.7317001223564148 4.267800807952881 C -0.2438998967409134 3.292200565338135 -0.2438998967409134 1.709100604057312 0.7317001223564148 0.7326006293296814 C 1.708199858665466 -0.2438992559909821 3.291299819946289 -0.2438994348049164 4.267800331115723 0.7326006293296814 L 15.72774982452393 12.19255065917969 L 27.18810081481934 0.7326006293296814 C 28.16369819641113 -0.2438993453979492 29.74679946899414 -0.2438993453979492 30.72330093383789 0.7326006293296814 C 31.69980049133301 1.709100604057312 31.69980049133301 3.292200565338135 30.72330093383789 4.267800807952881 L 19.26334953308105 15.72815036773682 L 29.7234001159668 26.18819999694824 C 30.69989967346191 27.16470146179199 30.69989967346191 28.74780082702637 29.7234001159668 29.72430038452148 C 29.23514938354492 30.21210098266602 28.59524917602539 30.45600128173828 27.95545959472656 30.45600128173828 Z" stroke="none" fill="#6b184e"/>
      </g>
    </g>
  </g>
</svg>
