<svg xmlns="http://www.w3.org/2000/svg" width="118.452" height="142.279" viewBox="0 0 118.452 142.279">
  <g id="Union_2" data-name="Union 2" transform="matrix(-0.559, -0.829, 0.829, -0.559, 73.171, 154.454)" fill="#2BB4D1">
    <path d="M 69.63909149169922 57.4079475402832 C 67.62245178222656 57.40808486938477 65.62605285644531 56.86626815795898 63.86575317382812 55.84106826782227 L 46.82403182983398 45.91350555419922 L 45.71353149414062 45.26658630371094 L 44.54119110107422 45.79322814941406 L 26.64067268371582 53.83454513549805 C 25.14457321166992 54.50654602050781 23.56367301940918 54.84734725952148 21.94197273254395 54.84746551513672 C 19.73317337036133 54.84762573242188 17.57685279846191 54.21248626708984 15.70617294311523 53.01070785522461 C 13.78719234466553 51.77792739868164 12.28063201904297 50.01078796386719 11.3493127822876 47.90030670166016 C 8.742772102355957 41.99260711669922 11.37987232208252 35.04918670654297 17.22793197631836 32.42242813110352 L 41.42183303833008 21.5539665222168 C 42.91787338256836 20.88190650939941 44.4987907409668 20.5411262512207 46.12065124511719 20.5411262512207 C 46.6462516784668 20.5411262512207 47.17737197875977 20.57802581787109 47.69925308227539 20.65076637268066 L 47.7537727355957 20.65836715698242 L 47.80855178833008 20.66356658935547 C 49.46687316894531 20.82068634033203 51.04665374755859 21.3308277130127 52.50401306152344 22.17980766296387 L 67.09947204589844 30.68140602111816 L 68.59721374511719 31.5538272857666 L 69.93949127197266 30.45718765258789 L 83.0443115234375 19.7506275177002 C 85.12966918945312 18.04670715332031 87.64593505859375 17.1461067199707 90.32111358642578 17.1461067199707 C 92.83559417724609 17.1461067199707 95.31731414794922 17.9837474822998 97.30915069580078 19.50470733642578 L 97.39829254150391 19.57278633117676 L 97.49317169189453 19.63260650634766 L 109.7032699584961 27.33002662658691 L 111.400032043457 28.39968681335449 L 112.8120727539062 26.97510719299316 L 123.6193923950195 16.07172584533691 C 125.8072891235352 13.86412715911865 128.7148284912109 12.64840698242188 131.8064727783203 12.64840698242188 C 134.898193359375 12.64840698242188 137.8060150146484 13.86418724060059 139.9942932128906 16.07178688049316 C 144.5262908935547 20.64382743835449 144.5262908935547 28.08308601379395 139.9942932128906 32.65512847900391 L 121.2670288085938 51.54888534545898 C 119.0791320800781 53.75682830810547 116.1716156005859 54.9727668762207 113.0798950195312 54.97290802001953 C 111.0263137817383 54.97300720214844 109.0095748901367 54.42400741577148 107.247673034668 53.3852653503418 L 107.2377548217773 53.3794059753418 L 107.2277908325195 53.3736686706543 C 107.0964736938477 53.29786682128906 106.9644546508789 53.21820831298828 106.83544921875 53.13688659667969 L 92.67731475830078 44.21046829223633 L 91.15550994873047 43.25100708007812 L 89.76231384277344 44.38918685913086 L 77.03333282470703 54.78824615478516 C 75.33231353759766 56.17812728881836 73.29193115234375 57.05022811889648 71.13262939453125 57.31044769287109 L 71.12193298339844 57.31172561645508 L 71.11125183105469 57.31310653686523 C 70.62469482421875 57.37600708007812 70.12937164306641 57.40790557861328 69.63909149169922 57.4079475402832 Z" stroke="none"/>
    <path d="M 69.63896179199219 54.907958984375 L 69.63890838623047 54.907958984375 C 70.02243804931641 54.90793609619141 70.40998840332031 54.88295745849609 70.79077911376953 54.83373260498047 L 70.83354949951172 54.82839202880859 C 72.52139282226562 54.62500762939453 74.11820983886719 53.94173431396484 75.45166778564453 52.85218811035156 L 90.96705627441406 40.17677688598633 L 108.1686172485352 51.02200698852539 C 108.2700958251953 51.08598327636719 108.3741455078125 51.14877700805664 108.4778289794922 51.2086181640625 L 108.5173492431641 51.231689453125 C 109.8947830200195 52.04377746582031 111.4724578857422 52.47298431396484 113.0797576904297 52.47291564941406 C 115.4994583129883 52.47280120849609 117.7763442993164 51.51977920532227 119.4914627075195 49.78895950317383 L 138.21875 30.8951416015625 C 141.7888031005859 27.29355049133301 141.7888031005859 21.43334770202637 138.21875 17.83175659179688 C 136.5035095214844 16.10136985778809 134.2262573242188 15.14839267730713 131.8064575195312 15.14839267730713 C 129.3868408203125 15.14839267730713 127.1099166870117 16.10125541687012 125.3949356079102 17.83164215087891 L 111.7635955810547 31.58418846130371 L 95.97019195556641 21.6278018951416 L 95.79191589355469 21.49166488647461 C 94.23334503173828 20.30152893066406 92.29043579101562 19.64609718322754 90.32112121582031 19.64609718322754 C 88.22914123535156 19.64609718322754 86.25987243652344 20.35164260864258 84.62602996826172 21.68664169311523 L 68.83664703369141 34.58648300170898 L 51.24559783935547 24.3399829864502 C 50.10350799560547 23.6746654510498 48.86777877807617 23.27511978149414 47.57278060913086 23.15241432189941 L 47.46314239501953 23.14202880859375 L 47.35407638549805 23.12682342529297 C 46.94609832763672 23.06995964050293 46.53109741210938 23.04111862182617 46.12062072753906 23.04111862182617 C 44.85430145263672 23.04111862182617 43.61807632446289 23.30802917480469 42.44625854492188 23.83443832397461 L 18.25227928161621 34.70291519165039 C 13.65339374542236 36.76859664916992 11.58280277252197 42.23627853393555 13.63650703430176 46.89100646972656 C 14.3692798614502 48.55155181884766 15.55218887329102 49.94036865234375 17.05741691589355 50.9073486328125 C 18.52414321899414 51.8496208190918 20.21314430236816 52.34759521484375 21.94175720214844 52.34748458862305 C 23.20807456970215 52.34737014770508 24.44441604614258 52.08039093017578 25.61623382568359 51.55407333374023 L 45.86141586303711 42.4594841003418 L 65.12396240234375 53.68075561523438 C 66.50261688232422 54.48368835449219 68.06387329101562 54.90805053710938 69.63896179199219 54.907958984375 M 69.63925933837891 59.907958984375 C 67.24864196777344 59.90809631347656 64.82671356201172 59.2938232421875 62.60759735107422 58.00139236450195 L 45.56562042236328 48.07368850708008 L 27.66509819030762 56.11500549316406 C 20.55600738525391 59.30821990966797 12.22739410400391 56.08259963989258 9.062097549438477 48.90959548950195 C 5.897711753845215 41.73750686645508 9.094507217407227 33.33509826660156 16.20359802246094 30.14189147949219 L 40.39739227294922 19.27350616455078 C 42.88771438598633 18.15478134155273 45.52891540527344 17.82404708862305 48.04439163208008 18.17471122741699 C 50.00080108642578 18.36007499694824 51.94927978515625 18.96339225769043 53.76239395141602 20.01959609985352 L 68.35778045654297 28.52116584777832 L 81.46260070800781 17.81459617614746 C 86.60101318359375 13.61607074737549 93.78044891357422 13.66464805603027 98.82639312744141 17.51775550842285 L 111.036506652832 25.21518707275391 L 121.8438034057617 14.31180095672607 C 127.3455123901367 8.76059627532959 136.2671813964844 8.76059627532959 141.7698059082031 14.31180095672607 C 147.2723999023438 19.86300659179688 147.2723999023438 28.8638916015625 141.7698059082031 34.41509628295898 L 123.042594909668 53.30879974365234 C 118.4170150756836 57.97678756713867 111.3740615844727 58.72017669677734 105.9779815673828 55.53884506225586 C 105.8181915283203 55.44659805297852 105.6600036621094 55.35116577148438 105.5025100708008 55.25189208984375 L 91.34400939941406 46.32525634765625 L 78.61500549316406 56.72430038452148 C 76.47430419921875 58.47343826293945 73.97885131835938 59.48554992675781 71.43173217773438 59.79248428344727 C 70.83866882324219 59.869140625 70.24011993408203 59.90791320800781 69.63925933837891 59.907958984375 Z" stroke="none" fill="#313131"/>
  </g>
</svg>
