<svg xmlns="http://www.w3.org/2000/svg" width="122.098" height="122.098" viewBox="0 0 122.098 122.098">
  <g id="Subtraction_84" data-name="Subtraction 84" transform="translate(61.049) rotate(45)" fill="#fff">
    <path d="M 9.44804573059082 76.88748931884766 C 10.28359985351562 75.36776733398438 11.06193923950195 73.81871795654297 11.78022003173828 72.24513244628906 C 13.82081985473633 67.77365112304688 15.39022064208984 63.07258605957031 16.44491386413574 58.27230453491211 C 17.52784729003906 53.34107971191406 18.07692718505859 48.25983810424805 18.07694053649902 43.16947937011719 C 18.07694053649902 34.84678268432617 16.6322193145752 26.70075798034668 13.78291320800781 18.95763778686523 C 12.57450771331787 15.67379474639893 11.12783622741699 12.49915790557861 9.451925277709961 9.449337005615234 C 10.97129726409912 10.28461265563965 12.52036952972412 11.0628719329834 14.09383392333984 11.78098487854004 C 18.56575393676758 13.82241153717041 23.26700592041016 15.39187812805176 28.06682014465332 16.44571876525879 C 32.9963264465332 17.52857208251953 38.0773811340332 18.07765197753906 43.16859436035156 18.07765197753906 C 48.25894165039062 18.07765197753906 53.34015274047852 17.52858352661133 58.27111434936523 16.44569206237793 C 63.06963348388672 15.39194488525391 67.77079010009766 13.8225040435791 72.24400329589844 11.78097152709961 C 73.81783294677734 11.06235980987549 75.36736297607422 10.28367328643799 76.88664245605469 9.448396682739258 C 75.21042633056641 12.49892807006836 73.76338958740234 15.67450046539307 72.55487060546875 18.95891761779785 C 69.70522308349609 26.70122528076172 68.26027679443359 34.84690475463867 68.26027679443359 43.16945266723633 C 68.26027679443359 48.26065063476562 68.80935668945312 53.3419303894043 69.89225769042969 58.27214431762695 C 70.9462890625 63.07119750976562 72.51570129394531 67.77234649658203 74.556884765625 72.24497222900391 C 75.27481842041016 73.81810760498047 76.05316925048828 75.36729431152344 76.88882446289062 76.88722991943359 C 73.83846282958984 75.21124267578125 70.66298675537109 73.76414489746094 67.37914276123047 72.55558776855469 C 59.63664627075195 69.70607757568359 51.49104690551758 68.26126098632812 43.16859436035156 68.26126098632812 C 34.84612655639648 68.26126098632812 26.70052719116211 69.7060546875 18.95808601379395 72.55550384521484 C 15.67395114898682 73.76417541503906 12.4981164932251 75.21151733398438 9.44804573059082 76.88748931884766 Z" stroke="none"/>
    <path d="M 71.49655151367188 71.49675750732422 C 69.76158905029297 67.40438842773438 68.40293121337891 63.14509201049805 67.45045471191406 58.80845260620117 C 66.32893371582031 53.70234680175781 65.76026916503906 48.44062423706055 65.76026916503906 43.16945266723633 C 65.76026916503906 34.55128479003906 67.25698089599609 26.11508560180664 70.20865631103516 18.09560775756836 C 70.61216735839844 16.99898529052734 71.04141235351562 15.91390514373779 71.49592590332031 14.84128761291504 C 67.403076171875 16.57651138305664 63.14345169067383 17.93530654907227 58.80736541748047 18.88748550415039 C 53.70062637329102 20.00899314880371 48.43898010253906 20.5776538848877 43.16859436035156 20.5776538848877 C 37.89731979370117 20.5776538848877 32.63579559326172 20.00899314880371 27.53068733215332 18.8875617980957 C 23.19356155395508 17.935302734375 18.9340877532959 16.57662582397461 14.84245491027832 14.8416919708252 C 15.29683494567871 15.91395282745361 15.72567749023438 16.99799346923828 16.12908744812012 18.09426879882812 C 19.08045768737793 26.11473083496094 20.57693481445312 34.55125427246094 20.57693481445312 43.16946792602539 C 20.57693481445312 48.43983840942383 20.00828742980957 53.70149993896484 18.88667297363281 58.80879211425781 C 17.93370246887207 63.1461067199707 16.57505798339844 67.4052734375 14.84061908721924 71.49671936035156 C 15.91325855255127 71.04212951660156 16.99795532226562 70.61297607421875 18.09462547302246 70.20935821533203 C 26.11441040039062 67.25782012939453 34.55050277709961 65.76126861572266 43.16859436035156 65.76126861572266 C 51.78662490844727 65.76126861572266 60.22274780273438 67.25783538818359 68.24259185791016 70.20942687988281 C 69.33917236328125 70.61299896240234 70.42394256591797 71.04219055175781 71.49655151367188 71.49675750732422 M 0.001149424817413092 86.336669921875 L 0.0001801940961740911 86.33568572998047 C 0.8298263549804688 85.33922576904297 1.643718600273132 84.30054473876953 2.419303178787231 83.24846649169922 C 5.189426422119141 79.49139404296875 7.573718547821045 75.44007110595703 9.505949020385742 71.20702362060547 C 11.47321128845215 66.89625549316406 12.98630332946777 62.36388397216797 14.00314903259277 57.73582458496094 C 15.04744148254395 52.98062515258789 15.57693386077881 48.07979202270508 15.57693386077881 43.16946792602539 C 15.57693386077881 35.14231491088867 14.18396472930908 27.28676223754883 11.4367036819458 19.82097816467285 C 8.782395362854004 12.60785388946533 4.934518814086914 5.939115524291992 -4.42129294242477e-06 8.069317118497565e-06 C 0.9962417483329773 0.8277157545089722 2.035672426223755 1.642238855361938 3.090410947799683 2.419961929321289 C 6.846457004547119 5.189977169036865 10.89776515960693 7.57428503036499 15.13182640075684 9.506653785705566 C 19.44330406188965 11.47483921051025 23.97564125061035 12.98791599273682 28.60294914245605 14.00388526916504 C 33.35684204101562 15.04816150665283 38.25741195678711 15.5776538848877 43.16859436035156 15.5776538848877 C 48.07891845703125 15.5776538848877 52.97973251342773 15.04816150665283 57.73485565185547 14.00387001037598 C 62.36099624633789 12.98799228668213 66.89333343505859 11.4749002456665 71.20600891113281 9.506638526916504 C 75.44161224365234 7.572654247283936 79.49293518066406 5.188346385955811 83.24742889404297 2.419961929321289 C 84.29339599609375 1.648961901664734 85.33251953125 0.8351773023605347 86.33596801757812 0.001238838536664844 C 81.40296173095703 5.940115928649902 77.55539703369141 12.60851573944092 74.90108489990234 19.82220840454102 C 72.15342712402344 27.28737640380859 70.76026916503906 35.14251708984375 70.76026916503906 43.16945266723633 C 70.76026916503906 48.08050155639648 71.28974914550781 52.98131561279297 72.33404541015625 57.73580932617188 C 73.35025787353516 62.36262512207031 74.86334991455078 66.89498901367188 76.83124542236328 71.20700836181641 C 78.7618408203125 75.4373779296875 81.14593505859375 79.48871612548828 83.91724395751953 83.24846649169922 C 84.68730163574219 84.29251861572266 85.49951934814453 85.32962036132812 86.33135223388672 86.33099365234375 C 80.39292144775391 81.40116119384766 73.72628784179688 77.55547332763672 66.51567077636719 74.9017333984375 C 59.05056381225586 72.15431213378906 51.19551849365234 70.76126861572266 43.16859436035156 70.76126861572266 C 35.14168930053711 70.76126861572266 27.28661155700684 72.15428161621094 19.8215503692627 74.90167236328125 C 12.60871887207031 77.55622100830078 5.94018030166626 81.40350341796875 0.001149424817413092 86.336669921875 Z" stroke="none" fill="#313131"/>
  </g>
</svg>
