<svg xmlns="http://www.w3.org/2000/svg" width="44" height="44" viewBox="0 0 44 44">
  <g id="Windowed" transform="translate(-0.182)">
    <g id="Rectangle_14" data-name="Rectangle 14" transform="translate(0.182)" fill="#FAE0F6" stroke="#3a3a3a" stroke-width="5">
      <rect width="44" height="44" rx="10" stroke="none"/>
      <rect x="2.5" y="2.5" width="39" height="39" rx="7.5" fill="none"/>
    </g>
    <g id="Path_4" data-name="Path 4" transform="translate(10.276 11)" fill="none">
      <path d="M 21.60051727294922 22.03503799438477 L 2.057197332382202 22.03503799438477 C 1.74995744228363 22.03503799438477 1.49999737739563 21.78986740112305 1.49999737739563 21.48850631713867 L 1.49999737739563 2.046527147293091 C 1.49999737739563 1.745167136192322 1.74995744228363 1.499997138977051 2.057197332382202 1.499997138977051 L 21.60051727294922 1.499997138977051 C 21.90775680541992 1.499997138977051 22.15771675109863 1.745167136192322 22.15771675109863 2.046527147293091 L 22.15771675109863 21.48850631713867 C 22.15771675109863 21.78986740112305 21.90775680541992 22.03503799438477 21.60051727294922 22.03503799438477 Z" stroke="none"/>
      <path d="M 2.999998092651367 2.999996185302734 L 2.999998092651367 20.53503799438477 L 20.65771675109863 20.53503799438477 L 20.65771675109863 2.999996185302734 L 2.999998092651367 2.999996185302734 M 2.057188034057617 -3.814697265625e-06 L 21.60051727294922 -3.814697265625e-06 C 22.7366771697998 -3.814697265625e-06 23.65771675109863 0.9162578582763672 23.65771675109863 2.046527862548828 L 23.65771675109863 21.48850631713867 C 23.65771675109863 22.61877632141113 22.7366771697998 23.53503799438477 21.60051727294922 23.53503799438477 L 2.057188034057617 23.53503799438477 C 0.9210376739501953 23.53503799438477 -1.9073486328125e-06 22.61877632141113 -1.9073486328125e-06 21.48850631713867 L -1.9073486328125e-06 2.046527862548828 C -1.9073486328125e-06 0.9162578582763672 0.9210376739501953 -3.814697265625e-06 2.057188034057617 -3.814697265625e-06 Z" stroke="none" fill="#3a3a3a"/>
    </g>
    <line id="Line_2" data-name="Line 2" x2="21" transform="translate(11.819 18.5)" fill="none" stroke="#3a3a3a" stroke-width="3"/>
  </g>
</svg>
